<?xml version="1.0" encoding="UTF-8" standalone="no"?>
<!-- Created with Inkscape (http://www.inkscape.org/) -->

<svg
   xmlns:dc="http://purl.org/dc/elements/1.1/"
   xmlns:cc="http://creativecommons.org/ns#"
   xmlns:rdf="http://www.w3.org/1999/02/22-rdf-syntax-ns#"
   xmlns:svg="http://www.w3.org/2000/svg"
   xmlns="http://www.w3.org/2000/svg"
   xmlns:sodipodi="http://sodipodi.sourceforge.net/DTD/sodipodi-0.dtd"
   xmlns:inkscape="http://www.inkscape.org/namespaces/inkscape"
   width="210mm"
   height="297mm"
   viewBox="0 0 210 297"
   version="1.1"
   id="svg2309"
   inkscape:version="0.92.4 (unknown)"
   sodipodi:docname="omniart1.svg">
  <defs
     id="defs2303" />
  <sodipodi:namedview
     id="base"
     pagecolor="#ffffff"
     bordercolor="#666666"
     borderopacity="1.0"
     inkscape:pageopacity="0.0"
     inkscape:pageshadow="2"
     inkscape:zoom="0.49497475"
     inkscape:cx="323.52547"
     inkscape:cy="623.97311"
     inkscape:document-units="mm"
     inkscape:current-layer="text2313"
     showgrid="false"
     inkscape:window-width="934"
     inkscape:window-height="1016"
     inkscape:window-x="53"
     inkscape:window-y="27"
     inkscape:window-maximized="0" />
  <metadata
     id="metadata2306">
    <rdf:RDF>
      <cc:Work
         rdf:about="">
        <dc:format>image/svg+xml</dc:format>
        <dc:type
           rdf:resource="http://purl.org/dc/dcmitype/StillImage" />
        <dc:title></dc:title>
      </cc:Work>
    </rdf:RDF>
  </metadata>
  <g
     inkscape:label="Layer 1"
     inkscape:groupmode="layer"
     id="layer1">
    <g
       aria-label="OmniArt"
       transform="scale(1.0450589,0.95688385)"
       style="font-style:normal;font-weight:normal;font-size:33.43621445px;line-height:1.25;font-family:sans-serif;letter-spacing:0px;word-spacing:0px;fill:none;fill-opacity:1;stroke:#000000;stroke-width:2.03600001;stroke-miterlimit:4;stroke-dasharray:none;stroke-opacity:1"
       id="text2313">
      <path
         d="m 44.090422,57.7738 q -3.59178,0 -5.714196,2.67751 -2.10609,2.677509 -2.10609,7.297845 0,4.60401 2.10609,7.28152 2.122416,2.677509 5.714196,2.677509 3.591781,0 5.681545,-2.677509 2.106089,-2.67751 2.106089,-7.28152 0,-4.620336 -2.106089,-7.297845 -2.089764,-2.67751 -5.681545,-2.67751 z m 0,-2.677509 q 5.126451,0 8.195791,3.444844 3.06934,3.428518 3.06934,9.20802 0,5.763176 -3.06934,9.20802 -3.06934,3.428518 -8.195791,3.428518 -5.142777,0 -8.228443,-3.428518 -3.06934,-3.428518 -3.06934,-9.20802 0,-5.779502 3.06934,-9.20802 3.085666,-3.444844 8.228443,-3.444844 z"
         style="fill:none;stroke:#000000;stroke-width:2.03600001;stroke-miterlimit:4;stroke-dasharray:none;stroke-opacity:1"
         id="path2858" />
      <path
         d="m 74.620559,65.136951 q 1.126513,-2.024458 2.693835,-2.987708 1.567323,-0.963251 3.689739,-0.963251 2.857098,0 4.408095,2.008132 1.550996,1.991806 1.550996,5.681544 V 79.912231 H 83.942863 V 68.973626 q 0,-2.62853 -0.930598,-3.90198 -0.930598,-1.27345 -2.840772,-1.27345 -2.334658,0 -3.689739,1.550997 -1.355081,1.550996 -1.355081,4.228505 V 79.912231 H 72.106312 V 68.973626 q 0,-2.644857 -0.930598,-3.90198 -0.930597,-1.27345 -2.873424,-1.27345 -2.302005,0 -3.657086,1.567323 -1.355081,1.550996 -1.355081,4.212179 V 79.912231 H 60.269762 V 61.626802 h 3.020361 v 2.840772 q 1.028555,-1.681607 2.465268,-2.481594 1.436712,-0.799988 3.412191,-0.799988 1.991806,0 3.37954,1.012229 1.404059,1.012229 2.073437,2.93873 z"
         style="fill:none;stroke:#000000;stroke-width:2.03600001;stroke-miterlimit:4;stroke-dasharray:none;stroke-opacity:1"
         id="path2860" />
      <path
         d="m 108.17106,68.875668 v 11.036563 h -3.00404 V 68.973626 q 0,-2.595878 -1.01223,-3.885654 -1.01223,-1.289776 -3.03668,-1.289776 -2.43262,0 -3.83668,1.550997 -1.404059,1.550996 -1.404059,4.228505 V 79.912231 H 92.857009 V 61.626802 h 3.020362 v 2.840772 q 1.077534,-1.648954 2.530573,-2.465268 1.469364,-0.816314 3.379536,-0.816314 3.15097,0 4.76728,1.959153 1.6163,1.942827 1.6163,5.730523 z"
         style="fill:none;stroke:#000000;stroke-width:2.03600001;stroke-miterlimit:4;stroke-dasharray:none;stroke-opacity:1"
         id="path2862" />
      <path
         d="m 114.19545,61.626802 h 3.00404 v 18.285429 h -3.00404 z m 0,-7.118257 h 3.00404 v 3.804023 h -3.00404 z"
         style="fill:none;stroke:#000000;stroke-width:2.03600001;stroke-miterlimit:4;stroke-dasharray:none;stroke-opacity:1"
         id="path2864" />
      <path
         d="m 131.74621,58.78603 -4.4734,12.130423 h 8.96312 z m -1.8612,-3.248929 h 3.73872 l 9.28965,24.37513 h -3.42852 l -2.22037,-6.252963 H 126.2769 l -2.22037,6.252963 h -3.4775 z"
         style="fill:none;stroke:#000000;stroke-width:2.03600001;stroke-miterlimit:4;stroke-dasharray:none;stroke-opacity:1"
         id="path2866" />
      <path
         d="m 156.92132,64.434921 q -0.50612,-0.293873 -1.11019,-0.424483 -0.58774,-0.146936 -1.3061,-0.146936 -2.5469,0 -3.91831,1.66528 -1.35508,1.648954 -1.35508,4.750946 v 9.632503 h -3.02036 V 61.626802 h 3.02036 v 2.840772 q 0.94693,-1.66528 2.46527,-2.465268 1.51834,-0.816314 3.68974,-0.816314 0.3102,0 0.6857,0.04898 0.37551,0.03265 0.83264,0.114284 z"
         style="fill:none;stroke:#000000;stroke-width:2.03600001;stroke-miterlimit:4;stroke-dasharray:none;stroke-opacity:1"
         id="path2868" />
      <path
         d="m 163.07633,56.435046 v 5.191756 h 6.18766 v 2.334657 h -6.18766 v 9.926376 q 0,2.2367 0.60407,2.873425 0.6204,0.636725 2.49792,0.636725 h 3.08567 v 2.514246 h -3.08567 q -3.4775,0 -4.79993,-1.289775 -1.32242,-1.306103 -1.32242,-4.734621 v -9.926376 h -2.20405 v -2.334657 h 2.20405 v -5.191756 z"
         style="fill:none;stroke:#000000;stroke-width:2.03600001;stroke-miterlimit:4;stroke-dasharray:none;stroke-opacity:1"
         id="path2870" />
    </g>
  </g>
</svg>
